<?xml version="1.0" standalone="no"?>
<!DOCTYPE svg PUBLIC "-//W3C//DTD SVG 20010904//EN"
 "http://www.w3.org/TR/2001/REC-SVG-20010904/DTD/svg10.dtd">
<svg version="1.0" xmlns="http://www.w3.org/2000/svg"
 width="150.000000pt" height="150.000000pt" viewBox="0 0 150.000000 150.000000"
 preserveAspectRatio="xMidYMid meet">
<metadata>
Created by potrace 1.11, written by Peter Selinger 2001-2013
</metadata>
<g transform="translate(0.000000,150.000000) scale(0.100000,-0.100000)"
fill="#000000" stroke="none">
<path d="M745 1441 c-16 -10 -49 -39 -73 -64 l-42 -47 -315 0 -315 0 0 -605 0
-605 224 0 c148 0 227 -4 231 -11 14 -21 62 -30 163 -30 81 0 108 3 121 15 22
20 35 20 52 0 19 -24 248 -17 276 8 17 16 43 18 226 18 l207 0 0 605 0 605
-291 0 -292 0 -61 65 c-34 36 -66 65 -71 65 -6 0 -23 -8 -40 -19z m10 -367
c45 -18 61 -142 25 -201 -39 -65 -120 -33 -136 53 -18 98 39 175 111 148z
m203 -25 c38 -40 34 -136 -7 -173 -61 -56 -121 80 -71 162 23 37 51 41 78 11z"/>
<path d="M712 1018 c-13 -13 -16 -75 -6 -102 15 -39 54 -3 54 49 0 28 -16 65
-28 65 -5 0 -13 -5 -20 -12z"/>
<path d="M904 996 c-9 -39 3 -78 24 -74 13 3 17 14 17 48 0 34 -4 45 -17 48
-12 2 -19 -5 -24 -22z"/>
</g>
</svg>
